<?xml version="1.0" encoding="iso-8859-1"?>
<!-- Generator: Adobe Illustrator 19.0.0, SVG Export Plug-In . SVG Version: 6.00 Build 0)  -->
<svg version="1.1" id="Layer_1" xmlns="http://www.w3.org/2000/svg" xmlns:xlink="http://www.w3.org/1999/xlink" x="0px" y="0px"
	 viewBox="0 0 512 512" style="enable-background:new 0 0 512 512;" xml:space="preserve">
<path style="fill:#FFDB2D;" d="M355.543,427.363H156.467c-9.875,0-17.881-8.006-17.881-17.881v-42.273
	C34.293,293.311,25.778,144.417,112.113,58.451c71.736-71.434,188.838-78.537,269.47-14.986
	c106.639,84.047,101.626,245.955-8.159,323.743v42.273C373.424,419.358,365.418,427.363,355.543,427.363z"/>
<path style="fill:#FF9900;" d="M381.583,43.465C344.735,14.423,300.27,0.145,256,0.011v427.353h99.544
	c9.875,0,17.881-8.006,17.881-17.881v-42.273C483.209,289.42,488.222,127.513,381.583,43.465z"/>
<path style="fill:#B9F7F9;" d="M331.755,512H180.255c-23.013,0-41.669-18.656-41.669-41.669V391.6h234.839v78.731
	C373.424,493.344,354.768,512,331.755,512z"/>
<path style="fill:#00D8E0;" d="M256,391.6V512h75.756c23.013,0,41.669-18.656,41.669-41.669V391.6H256z"/>
<path style="fill:#B9F7F9;" d="M340.217,209.408c-8.107-5.641-19.251-3.638-24.889,4.468l-59.328,85.285l-59.328-85.285
	c-5.639-8.105-16.78-10.108-24.889-4.468c-8.107,5.639-10.108,16.783-4.468,24.889l70.805,101.783v73.401
	c0,9.875,8.006,17.881,17.881,17.881s17.881-8.006,17.881-17.881v-73.4l70.805-101.783
	C350.326,226.191,348.324,215.048,340.217,209.408z"/>
<path style="fill:#00D8E0;" d="M340.217,209.408c-8.107-5.641-19.251-3.638-24.889,4.468l-59.328,85.285v128.202
	c9.875,0,17.881-8.006,17.881-17.881v-73.4l70.805-101.783C350.326,226.191,348.324,215.048,340.217,209.408z"/>
<g>
</g>
<g>
</g>
<g>
</g>
<g>
</g>
<g>
</g>
<g>
</g>
<g>
</g>
<g>
</g>
<g>
</g>
<g>
</g>
<g>
</g>
<g>
</g>
<g>
</g>
<g>
</g>
<g>
</g>
</svg>
